:version 1.10
:name ASF
:units
  mass 1
  length 1
  angle deg
:documentation
  ASF file generated by Kaydara
:root
  axis xyz
  order  tx ty tz rx ry rz
  position 0 0 0
  orientation 0 0 0
:bonedata
  begin
    id 1
    name RightUpLegDummy
    direction -0.718183 -0.695806 0.00816078
    length 4.904
    axis 0 0 0 xyz
  end
  begin
    id 2
    name RightUpLeg
    direction 3.53989e-006 -0.995788 0.0916897
    length 17.4976
    axis -3.49089 -0.000906621 0.000287158 xyz
    dof rx ry rz
  end
  begin
    id 3
    name RightLeg
    direction 0.00371093 -0.995096 -0.0988418
    length 16.5821
    axis 3.68512 0.0193738 -0.131023 xyz
    dof rx ry rz
  end
  begin
    id 4
    name RightFoot
    direction 0.000791514 -0.46099 0.887405
    length 3.77069
    axis 4.84075e-005 -0.120479 -0.188788 xyz
    dof rx ry rz
  end
  begin
    id 5
    name RightToes
    direction 0.00124746 -0.014064 0.9999
    length 3.85082
    axis 0.00048216 0.542163 -0.142577 xyz
    dof rx ry rz
  end
  begin
    id 6
    name SpineDummy
    direction 8.36599e-015 1 5.97571e-016
    length 4.6813
    axis 0 0 0 xyz
  end
  begin
    id 7
    name Spine
    direction -4.63632e-008 0.999988 0.00495137
    length 10.1015
    axis -0.00138897 0.000121419 3.25764e-006 xyz
    dof rx ry rz
  end
  begin
    id 8
    name Spine1
    direction 0 0 0
    length 0
    axis -0.00138896 0.000121452 2.39764e-006 xyz
    dof rx ry rz
  end
  begin
    id 9
    name HEadDummy
    direction -3.91456e-008 0.999999 0.00127422
    length 3.43865
    axis -0.00138896 0.000121452 2.39764e-006 xyz
  end
  begin
    id 10
    name HEad
    direction -0.0222688 0.980941 0.193023
    length 5.12695
    axis -0.00138895 0.000121452 2.39764e-006 xyz
    dof rx ry rz
  end
  begin
    id 11
    name LeftShoulder1Dummy
    direction 0.998891 -0.0402508 -0.0244456
    length 3.5433
    axis -0.00138896 0.000121452 2.39764e-006 xyz
  end
  begin
    id 12
    name LeftShoulder1
    direction 0.99951 -0.000327743 0.0313091
    length 4.05031
    axis -0.00138896 0.000121452 2.39764e-006 xyz
    dof rx ry rz
  end
  begin
    id 13
    name LeftArm
    direction 0.998561 -0.00100054 -0.0536182
    length 10.3537
    axis -23.1894 0.134784 0.96751 xyz
    dof rx ry rz
  end
  begin
    id 14
    name LeftForeArm
    direction 0.998903 0.00866434 0.046012
    length 8.70632
    axis -9.91835 -0.06569 -0.177792 xyz
    dof rx ry rz
  end
  begin
    id 15
    name LeftHand
    direction 0.992938 -0.0411636 0.11126
    length 5.32135
    axis -0.00960227 -0.00340091 0.185174 xyz
    dof rx ry rz
  end
  begin
    id 16
    name RightShoulderDummy
    direction -0.998891 -0.0402509 -0.0244414
    length 3.5433
    axis -0.00138896 0.000121452 2.39764e-006 xyz
  end
  begin
    id 17
    name RightShoulder
    direction -0.99951 -0.000327827 0.0313133
    length 4.05031
    axis 0.215806 0.000203644 -0.00680151 xyz
    dof rx ry rz
  end
  begin
    id 18
    name RightArm
    direction -0.998573 -0.000999583 -0.053403
    length 10.3947
    axis -23.2009 -0.134239 -0.9641 xyz
    dof rx ry rz
  end
  begin
    id 19
    name RightForeArm
    direction -0.998898 0.00868026 0.0461306
    length 8.68355
    axis -9.92322 0.0658061 0.178869 xyz
    dof rx ry rz
  end
  begin
    id 20
    name RightHand
    direction -0.992843 -0.0414603 0.112003
    length 5.28593
    axis -0.00960634 0.00330671 -0.185226 xyz
    dof rx ry rz
  end
  begin
    id 21
    name LeftUpLegDummy
    direction 0.718183 -0.695806 0.00816078
    length 4.904
    axis 0 0 0 xyz
  end
  begin
    id 22
    name LeftUpLeg
    direction -6.8115e-006 -0.995793 0.0916336
    length 17.4976
    axis -3.48766 0.00143441 -0.000523914 xyz
    dof rx ry rz
  end
  begin
    id 23
    name LeftLeg
    direction -0.00601357 -0.995091 -0.0987824
    length 16.5821
    axis 3.68177 -0.00654038 -0.00028478 xyz
    dof rx ry rz
  end
  begin
    id 24
    name LeftFoot
    direction -0.00417578 -0.460984 0.887399
    length 3.77069
    axis 1.87232e-006 4.66002e-005 -8.1837e-006 xyz
    dof rx ry rz
  end
  begin
    id 25
    name LeftToes
    direction 0.00818058 -0.00485161 0.999955
    length 3.85048
    axis 1.06246e-005 4.65855e-005 -8.18502e-006 xyz
    dof rx ry rz
  end
:hierarchy
  begin
    root RightUpLegDummy SpineDummy LeftUpLegDummy
    RightUpLegDummy RightUpLeg
    RightUpLeg RightLeg
    RightLeg RightFoot
    RightFoot RightToes
    SpineDummy Spine
    Spine Spine1
    Spine1 HEadDummy LeftShoulder1Dummy RightShoulderDummy
    HEadDummy HEad
    LeftShoulder1Dummy LeftShoulder1
    LeftShoulder1 LeftArm
    LeftArm LeftForeArm
    LeftForeArm LeftHand
    RightShoulderDummy RightShoulder
    RightShoulder RightArm
    RightArm RightForeArm
    RightForeArm RightHand
    LeftUpLegDummy LeftUpLeg
    LeftUpLeg LeftLeg
    LeftLeg LeftFoot
    LeftFoot LeftToes
  end

:SAMPLES-PER-SECOND 24
:FULLY-SPECIFIED
:DEGREES
1
root  0.789145 40.9529 28.388 -178.894 -62.4122 174.535
RightUpLeg  -9.42351 -12.285 -19.8091
RightLeg  18.3789 7.56402 2.59506
RightFoot  17.3632 -3.03306 12.289
RightToes  -1.74623e-010 0 -2.59999e-017
Spine  1.55495 -3.56398 -8.87021
Spine1  10.7355 -5.27077 4.57981
HEad  -6.71958 -39.0553 12.1904
LeftShoulder1  1.92745 -3.83441 -19.7974
LeftArm  21.2478 15.6411 -51.2842
LeftForeArm  118.837 -78.384 -119.697
LeftHand  0.171947 8.68982 7.28661
RightShoulder  2.61372 4.53732 26.5018
RightArm  -3.51701 -25.1291 33.2073
RightForeArm  1.08958 43.2658 10.4733
RightHand  -0.481696 -1.61737 -14.6935
LeftUpLeg  8.47409 16.3483 12.6563
LeftLeg  17.1773 6.60787 1.50534
LeftFoot  9.12505 1.94562 -11.0606
LeftToes  -6.27559e-011 -2.10356e-011 8.24929e-012
2
root  0.98662 40.7455 28.5474 -179.586 -62.4945 174.396
RightUpLeg  -9.35519 -8.75221 -19.8226
RightLeg  20.5771 10.4277 4.10135
RightFoot  14.5272 -3.23031 14.445
RightToes  -1.74623e-010 0 -2.59999e-017
Spine  2.62782 -3.42459 -8.45604
Spine1  10.8529 -5.06418 3.53389
HEad  -9.1899 -38.0684 13.1977
LeftShoulder1  1.66317 -3.60568 -16.6894
LeftArm  21.0517 16.5715 -53.3947
LeftForeArm  131.472 -77.5869 -127.568
LeftHand  -0.00231524 6.93645 2.56803
RightShoulder  2.22294 4.01914 23.405
RightArm  6.72665 -23.3224 34.2893
RightForeArm  -4.6173 35.5564 8.27963
RightHand  -0.000438406 -1.99659 -0.0579641
LeftUpLeg  8.56182 20.8423 13.3003
LeftLeg  19.0563 7.74907 2.40271
LeftFoot  7.27669 1.68362 -10.5353
LeftToes  -6.27559e-011 -2.10356e-011 8.24929e-012
3
root  1.30037 39.8875 28.671 179.16 -62.8339 173.998
RightUpLeg  -9.23389 -4.44909 -20.0582
RightLeg  25.2258 9.826 4.78754
RightFoot  9.39333 -3.06734 17.0636
RightToes  -1.74623e-010 0 -2.59999e-017
Spine  5.24032 -2.91872 -9.24705
Spine1  10.4016 -5.06086 3.55592
HEad  -11.5087 -37.2167 13.5613
LeftShoulder1  1.4721 -3.35197 -14.6007
LeftArm  21.808 14.3475 -54.0999
LeftForeArm  136.177 -77.0353 -131.106
LeftHand  -0.0210334 6.62214 1.29281
RightShoulder  2.03818 3.83604 21.5169
RightArm  16.0991 -21.5577 33.9553
RightForeArm  -3.73344 32.2817 7.32447
RightHand  0.130331 -2.67528 6.15664
LeftUpLeg  8.66662 26.1283 14.8525
LeftLeg  23.7853 6.21777 3.25968
LeftFoot  1.38213 1.49036 -13.4853
LeftToes  -6.27559e-011 -2.10356e-011 8.24929e-012
4
root  1.63903 38.4802 28.7642 179.296 -63.9034 172.953
RightUpLeg  -9.81961 -3.79232 -20.8397
RightLeg  30.2306 8.14652 4.87138
RightFoot  -1.36661 -1.55346 17.5805
RightToes  -1.74623e-010 0 -2.59999e-017
Spine  6.64324 -2.64341 -10.8104
Spine1  10.3032 -5.40212 4.48394
HEad  -13.2484 -36.7871 13.345
LeftShoulder1  1.43136 -3.32284 -14.0304
LeftArm  23.1438 9.36553 -51.838
LeftForeArm  134.255 -76.4826 -132.766
LeftHand  -0.000177927 6.92419 2.59168
RightShoulder  2.15315 4.18118 21.7783
RightArm  22.4137 -20.4285 31.6344
RightForeArm  2.09046 33.1016 7.22615
RightHand  -0.00125022 -4.90399 7.06076
LeftUpLeg  7.47758 27.7866 15.6886
LeftLeg  29.3978 4.59587 3.18002
LeftFoot  -8.7163 0.424213 -16.5822
LeftToes  -6.27559e-011 -2.10356e-011 8.24929e-012
5
root  1.97488 37.1648 28.9081 178.808 -65.3274 173.879
RightUpLeg  -11.5374 -7.22132 -21.0088
RightLeg  34.4381 8.68393 6.1233
RightFoot  -10.3508 -0.208476 15.8394
RightToes  -1.74623e-010 0 -2.59999e-017
Spine  6.4196 -3.03764 -10.7463
Spine1  11.3468 -5.91205 4.27091
HEad  -16.192 -36.4478 14.2251
LeftShoulder1  1.46989 -2.8374 -16.4572
LeftArm  24.029 0.283614 -45.9787
LeftForeArm  127.997 -76.8731 -129.761
LeftHand  0.0231195 7.66649 3.08374
RightShoulder  2.54001 4.74124 24.7227
RightArm  23.5487 -17.4729 28.6343
RightForeArm  9.74797 31.4986 6.37404
RightHand  0.0755073 -3.35533 5.56011
LeftUpLeg  4.72582 27.9643 16.8878
LeftLeg  34.7573 1.09077 1.20506
LeftFoot  -18.9067 -1.0539 -17.5257
LeftToes  -6.27559e-011 -2.10356e-011 8.24929e-012
